<svg width="26" height="26" viewBox="0 0 26 26" fill="none" xmlns="http://www.w3.org/2000/svg">
<mask id="mask0" mask-type="alpha" maskUnits="userSpaceOnUse" x="3" y="0" width="23" height="15">
<path fill-rule="evenodd" clip-rule="evenodd" d="M3.98218 0H25.2187V14.6198H3.98218V0Z" fill="white"/>
</mask>
<g mask="url(#mask0)">
<path d="M23.4693 13.8462L22.2584 14.6198L19.7784 10.1511C18.4046 7.67274 15.7826 6.13315 12.9368 6.13315H3.98218L12.751 0.538423C14.1001 -0.322158 15.8701 -0.135541 17.008 0.986682L24.0944 7.97851C25.8212 9.68266 25.5169 12.5393 23.4693 13.8462Z" fill="#4A154B"/>
</g>
<mask id="mask1" mask-type="alpha" maskUnits="userSpaceOnUse" x="0" y="7" width="24" height="19">
<path fill-rule="evenodd" clip-rule="evenodd" d="M0 7.9744H23.2274V25.9169H0V7.9744Z" fill="white"/>
</mask>
<g mask="url(#mask1)">
<path d="M19.7014 25.9169H9.27479C8.22956 25.9169 7.27906 25.2973 6.83926 24.3308L0.200847 9.76141L0.101719 9.54188C-0.0381888 9.23337 -0.0268958 8.90759 0.0935631 8.63173C0.101719 8.61188 0.11113 8.59396 0.121168 8.57348C0.236608 8.34434 0.428589 8.15681 0.671389 8.0576C0.796867 8.00448 0.934893 7.9744 1.0817 7.9744H12.4525C14.617 7.9744 16.6102 9.17513 17.6548 11.1081L20.1669 15.7516L22.7844 20.5891C24.0787 22.9835 22.3822 25.9169 19.7014 25.9169Z" fill="#4A154B"/>
</g>
</svg>
