<svg width="16" height="17" viewBox="0 0 16 17" fill="none" xmlns="http://www.w3.org/2000/svg">
<path d="M11.2929 3.79289C11.6834 3.40237 12.3166 3.40237 12.7071 3.79289C13.0976 4.18342 13.0976 4.81658 12.7071 5.20711L9.41421 8.5L12.7071 11.7929C13.0976 12.1834 13.0976 12.8166 12.7071 13.2071C12.3166 13.5976 11.6834 13.5976 11.2929 13.2071L8 9.91421L4.70711 13.2071C4.31658 13.5976 3.68342 13.5976 3.29289 13.2071C2.90237 12.8166 2.90237 12.1834 3.29289 11.7929L6.58579 8.5L3.29289 5.20711C2.90237 4.81658 2.90237 4.18342 3.29289 3.79289C3.68342 3.40237 4.31658 3.40237 4.70711 3.79289L8 7.08579L11.2929 3.79289Z" fill="white"/>
</svg>
